<svg xmlns="http://www.w3.org/2000/svg">
    <symbol xmlns="http://www.w3.org/2000/svg" width="24" height="24" viewBox="0 0 24 24" id="logo">
    <path d="M19.82 2H4.18C2.97602 2 2 2.97602 2 4.18V19.82C2 21.024 2.97602 22 4.18 22H19.82C21.024 22 22 21.024 22 19.82V4.18C22 2.97602 21.024 2 19.82 2Z" stroke-width="2" stroke-linecap="round" stroke-linejoin="round"/>
    <path d="M7 2V22"  stroke-width="2" stroke-linecap="round" stroke-linejoin="round"/>
    <path d="M17 2V22"  stroke-width="2" stroke-linecap="round" stroke-linejoin="round"/>
    <path d="M2 12H22"  stroke-width="2" stroke-linecap="round" stroke-linejoin="round"/>
    <path d="M2 7H7"  stroke-width="2" stroke-linecap="round" stroke-linejoin="round"/>
    <path d="M2 17H7"  stroke-width="2" stroke-linecap="round" stroke-linejoin="round"/>
    <path d="M17 17H22"  stroke-width="2" stroke-linecap="round" stroke-linejoin="round"/>
    <path d="M17 7H22"  stroke-width="2" stroke-linecap="round" stroke-linejoin="round"/>
    </symbol>

<symbol xmlns="http://www.w3.org/2000/svg" width="12" height="12" viewBox="0 0 12 12" id="search">
  <path d="M5.5 9.5C7.70914 9.5 9.5 7.70914 9.5 5.5C9.5 3.29086 7.70914 1.5 5.5 1.5C3.29086 1.5 1.5 3.29086 1.5 5.5C1.5 7.70914 3.29086 9.5 5.5 9.5Z" stroke="white" stroke-linecap="round" stroke-linejoin="round"/>
  <path d="M10.5 10.5002L8.32495 8.3252" stroke="white" stroke-linecap="round" stroke-linejoin="round"/>
</symbol>

</svg>